<svg width="24" height="24" viewBox="0 0 24 24" fill="none" xmlns="http://www.w3.org/2000/svg">
<path d="M16.114 9.29097C16.666 8.73897 17.214 7.45097 14.914 9.01497C11.646 11.27 8.42499 13.387 8.42499 13.387C8.09343 13.5369 7.73499 13.6183 7.37119 13.6262C7.0074 13.6341 6.64575 13.5684 6.30799 13.433C4.92799 13.019 3.31699 12.467 3.31699 12.467C3.31699 12.467 2.21699 11.776 4.09999 11.04C4.09999 11.04 12.061 7.77297 14.822 6.62197C15.88 6.16197 19.469 4.68997 19.469 4.68997C19.469 4.68997 21.126 4.04497 20.988 5.60997C20.942 6.25397 20.574 8.50997 20.206 10.948C19.653 14.399 19.055 18.173 19.055 18.173C19.055 18.173 18.963 19.231 18.181 19.415C17.3439 19.4008 16.5351 19.1096 15.881 18.587C15.697 18.449 12.43 16.378 11.233 15.366C11.1112 15.2835 11.0123 15.1715 10.9454 15.0406C10.8786 14.9096 10.8459 14.7638 10.8505 14.6168C10.8551 14.4698 10.8968 14.3264 10.9717 14.1998C11.0466 14.0732 11.1523 13.9677 11.279 13.893C12.939 12.375 14.918 10.488 16.114 9.29097Z" fill="#FDFDFD"/>
</svg>
